<?xml version="1.0" encoding="UTF-8" standalone="no"?>
<svg
   viewBox="0 0 919.99998 420.00002"
   width="920"
   height="420"
   version="1.1"
   id="svg16"
   sodipodi:docname="Stealthchanger_DoorBuffer.svg"
   inkscape:version="1.3.2 (091e20e, 2023-11-25, custom)"
   inkscape:export-filename="Stealthchanger_DoorBuffer.png"
   inkscape:export-xdpi="96"
   inkscape:export-ydpi="96"
   xmlns:inkscape="http://www.inkscape.org/namespaces/inkscape"
   xmlns:sodipodi="http://sodipodi.sourceforge.net/DTD/sodipodi-0.dtd"
   xmlns="http://www.w3.org/2000/svg"
   xmlns:svg="http://www.w3.org/2000/svg">
  <sodipodi:namedview
     id="namedview16"
     pagecolor="#ffffff"
     bordercolor="#000000"
     borderopacity="0.25"
     inkscape:showpageshadow="2"
     inkscape:pageopacity="0.0"
     inkscape:pagecheckerboard="0"
     inkscape:deskcolor="#d1d1d1"
     inkscape:zoom="1.4576538"
     inkscape:cx="499.4327"
     inkscape:cy="148.86936"
     inkscape:window-width="2558"
     inkscape:window-height="1360"
     inkscape:window-x="1273"
     inkscape:window-y="0"
     inkscape:window-maximized="0"
     inkscape:current-layer="g16" />
  <desc
     id="desc1">DoorBuffer.dxf - scale = 1.000000, origin = (0.000000, 0.000000), method = manual</desc>
  <defs
     id="defs4">
    <linearGradient
       id="swatch16"
       inkscape:swatch="solid">
      <stop
         style="stop-color:#db3f38;stop-opacity:1;"
         offset="0"
         id="stop16" />
    </linearGradient>
    <marker
       id="DistanceX"
       orient="auto"
       refX="0"
       refY="0"
       style="overflow:visible">
      <path
         d="M 3,-3 -3,3 M 0,-5 V 5"
         style="stroke:#000000;stroke-width:0.5"
         id="path1" />
    </marker>
    <pattern
       id="Hatch"
       patternUnits="userSpaceOnUse"
       width="8"
       height="8"
       x="0"
       y="0">
      <path
         d="M8 4 l-4,4"
         stroke="#000000"
         stroke-width="0.25"
         linecap="square"
         id="path2" />
      <path
         d="M6 2 l-4,4"
         stroke="#000000"
         stroke-width="0.25"
         linecap="square"
         id="path3" />
      <path
         d="M4 0 l-4,4"
         stroke="#000000"
         stroke-width="0.25"
         linecap="square"
         id="path4" />
    </pattern>
    <symbol
       id="*MODEL_SPACE" />
    <symbol
       id="*PAPER_SPACE" />
  </defs>
  <g
     inkscape:groupmode="layer"
     inkscape:label="0"
     id="g16">
    <path
       d="m 605.14016,212.76748 61.84682,-98.195 h -41.23121 l -61.84682,98.195 z"
       style="fill:#db3f38;stroke:#db3f38;fill-opacity:1;stroke-opacity:1"
       id="path5" />
    <path
       d="m 440.21532,212.76748 56.69292,-56.6929 28.34645,16.3658 v 122.1563 l 141.73229,81.8292 141.73228,-81.8292 28.34646,16.3658 -170.07874,98.195 -170.07874,-98.195 v -98.195 z"
       style="fill:#db3f38;stroke:#db3f38;fill-opacity:1;stroke-opacity:1"
       id="path6" />
    <path
       d="m 837.06572,114.57248 v 98.195 h 56.69291 l -56.69291,56.6929 -28.34646,-16.3658 V 130.93838 L 666.98698,49.109181 525.25469,130.93838 496.90824,114.57248 666.98698,16.377481 Z"
       style="fill:#db3f38;stroke:#db3f38;fill-opacity:1;stroke-opacity:1"
       id="path7" />
    <path
       d="m 584.52456,310.96248 123.69363,-196.39 h 41.23121 l -123.69363,196.39 z"
       style="fill:#db3f38;stroke:#db3f38;fill-opacity:1;stroke-opacity:1"
       id="path8" />
    <path
       d="m 728.83379,212.76748 -61.84681,98.195 h 41.23121 l 61.84681,-98.195 z"
       style="fill:#db3f38;stroke:#db3f38;fill-opacity:1;stroke-opacity:1"
       id="path9" />
    <path
       d="M 202.30326,389.74798 V 53.160981 H 102.23792 L 73.880527,142.28418 v 158.3405 l 28.357393,89.1233 z"
       style="fill:#db3f38;stroke:#db3f38;fill-opacity:1;stroke-opacity:1"
       id="path10" />
    <path
       d="m 353.00681,142.28418 v 158.3405 l -28.35739,89.1233 H 224.58407 V 53.160981 h 100.06535 z"
       style="fill:#db3f38;stroke:#db3f38;fill-opacity:1;stroke-opacity:1"
       id="path12" />
    <path
       d="M 202.30326,39.792481 H 92.462637 L 60.512038,140.20868 v 162.4916 l 27.696989,87.0477 -31.077569,-23.3082 -27.696991,-87.0477 V 116.90048 L 61.385068,16.484281 H 171.22569 289.31824 l 31.07758,23.3082 z"
       style="fill:#db3f38;stroke:#db3f38;fill-opacity:1;stroke-opacity:1"
       id="path15" />
  </g>
</svg>
